<svg id="Layer_1" data-name="Layer 1" xmlns="http://www.w3.org/2000/svg" viewBox="0 0 139.91 67.73"><defs><style>.cls-1{fill:#001f2c;}.cls-2{fill:#003e5d;}.cls-3{fill:#eba512;}.cls-4{isolation:isolate;}</style></defs><title>logo</title><g id="Group_1210" data-name="Group 1210"><g id="Group_1208" data-name="Group 1208"><path id="Path_46591" data-name="Path 46591" class="cls-1" d="M37.68,34.84l-.75-4.47-.7.18L37,35Z"/><path id="Path_46592" data-name="Path 46592" class="cls-2" d="M33.78,43.29l12.37-2.45L48.68,51.7,51,64,31.54,66l-.38-22.16Z"/><path id="Path_46593" data-name="Path 46593" class="cls-2" d="M60.33,39,49.12,47.66l-1.71-7.19,6.65-3.83Z"/><path id="Path_46594" data-name="Path 46594" class="cls-2" d="M36.89,34.38a2.94,2.94,0,0,1,3.68.89h0a1.37,1.37,0,1,0,1,2.37L42,39.39l-5.84,1.08.25,1.34,5.94-1.09.39,1.45L34.28,43.4,34,37.81s-.56-2.22,2.88-3.43M37,38.85a1.37,1.37,0,1,0-1.41-1.33A1.36,1.36,0,0,0,37,38.85"/><path id="Path_46595" data-name="Path 46595" class="cls-2" d="M55.16,35.56l3.67-8.71,1.87-1v-.08l-.14-.27h0s-.68-4.31-.67-4.9,1-.95,1.16.4c.06.37.15.94.24,1.55l.24-1,2.16-2.44-.43-3.6,1.23-.89,2,1.58,1.19,4.21-.73,2h0l-.13.36-.45,1.23h0L61.44,37.52Z"/><path id="Path_46596" data-name="Path 46596" class="cls-2" d="M15.75,45.74l13.88,6-.07-7.6L20.8,41.86Z"/><path id="Path_46597" data-name="Path 46597" class="cls-2" d="M3.61,26.88,5,24.72l1.46.42.79,3.54,2.85,1.57.51.78c-.11-.59-.22-1.12-.29-1.47-.27-1.34.74-1.32.95-.77s1.07,4.82,1.07,4.82v0h0l0,.3V34l2.11.32L19.87,41l-5.18,3.69L5.27,32.92h0L3.9,31.24Z"/><path id="Path_46598" data-name="Path 46598" class="cls-3" d="M34.51,28.64a1.88,1.88,0,1,0,1.83-1.93h0a1.88,1.88,0,0,0-1.83,1.93"/><path id="Path_46599" data-name="Path 46599" class="cls-3" d="M34.25,30.18a.19.19,0,0,0,0-.26,2.67,2.67,0,0,1-.36-1,2.5,2.5,0,0,1,4.94-.76,2.6,2.6,0,0,1-.05,1h0a.18.18,0,0,0,.13.22.19.19,0,0,0,.23-.13,2.92,2.92,0,0,0,.05-1.14,2.86,2.86,0,1,0-5.25,2,.2.2,0,0,0,.19.08l.07,0"/><path id="Path_46600" data-name="Path 46600" class="cls-3" d="M33.52,30.68a.18.18,0,0,0,.06-.25,3.38,3.38,0,1,1,6.17-2.36,3.3,3.3,0,0,1-.08,1.4.2.2,0,0,0,.13.23.19.19,0,0,0,.23-.13A3.69,3.69,0,0,0,40.12,28a3.75,3.75,0,1,0-6.86,2.61.2.2,0,0,0,.19.08.11.11,0,0,0,.07,0"/><path id="Path_46601" data-name="Path 46601" class="cls-3" d="M32.56,31.37a.19.19,0,0,0,.06-.26,4.46,4.46,0,0,1-.71-1.83,4.56,4.56,0,0,1,9-1.38h0a4.48,4.48,0,0,1-.13,2,.17.17,0,0,0,.12.22h0a.17.17,0,0,0,.22-.12h0a4.87,4.87,0,0,0,.14-2.11h0a4.92,4.92,0,1,0-9.73,1.49,4.71,4.71,0,0,0,.76,2,.17.17,0,0,0,.18.08l.07,0"/><path id="Path_46602" data-name="Path 46602" class="cls-3" d="M31.28,32.25a.19.19,0,0,0,0-.25h0a6.12,6.12,0,1,1,11-1.7.18.18,0,0,0,.12.23.18.18,0,0,0,.23-.12A6.49,6.49,0,1,0,31,32.21a.18.18,0,0,0,.18.07.11.11,0,0,0,.08,0"/><path id="Path_46603" data-name="Path 46603" class="cls-3" d="M44.62,31.05a8.57,8.57,0,1,0-15.33,2.3.18.18,0,0,0,.25.06.18.18,0,0,0,.05-.26,8.2,8.2,0,1,1,14.68-2.21h0a.18.18,0,0,0,.12.23h.09a.17.17,0,0,0,.14-.13"/><path id="Path_46604" data-name="Path 46604" class="cls-3" d="M47.27,31.84a11.11,11.11,0,0,0,.35-5h0A11.34,11.34,0,1,0,27,34.9a.18.18,0,0,0,.25.05.18.18,0,0,0,.05-.25,11,11,0,1,1,20-7.77l0,.18a10.78,10.78,0,0,1-.36,4.62.19.19,0,0,0,.13.23h.08a.18.18,0,0,0,.15-.13"/><path id="Path_46605" data-name="Path 46605" class="cls-3" d="M50.8,32.88a15,15,0,1,0-26.88,4,.2.2,0,0,0,.26.06.19.19,0,0,0,.05-.26h0a14.65,14.65,0,1,1,26.22-3.94.19.19,0,0,0,.12.23.22.22,0,0,0,.08,0,.18.18,0,0,0,.15-.13"/><path id="Path_46606" data-name="Path 46606" class="cls-3" d="M17.09,31.56a19.55,19.55,0,0,1,38.64-5.93.17.17,0,0,0,.2.16.18.18,0,0,0,.17-.2v0a19.92,19.92,0,0,0-39.37,6.05.19.19,0,0,0,.21.15.18.18,0,0,0,.15-.21"/><path id="Path_46607" data-name="Path 46607" class="cls-3" d="M57,12.32a.19.19,0,0,0,0-.26,26.43,26.43,0,0,0-45.18,6.83.18.18,0,0,0,.1.24.18.18,0,0,0,.24-.1,26.06,26.06,0,0,1,44.55-6.75h0a.17.17,0,0,0,.17.07.18.18,0,0,0,.09,0"/></g><g id="Group_1209" data-name="Group 1209"><path id="Path_46608" data-name="Path 46608" class="cls-3" d="M72.12,26.38h5.36v9h.07l5-9h5.79l-6,9.84,6.72,13h-6l-4.13-8.6L77.5,42.8v6.39H72.13Z"/><path id="Path_46609" data-name="Path 46609" class="cls-3" d="M93.57,42.12v.79c0,1.73.48,3,2.34,3s2.42-1.41,2.43-2.72c0-4.92-9.82-2.16-9.83-10.7,0-3.65,1.95-6.71,7.48-6.72,5.37,0,7.29,2.72,7.29,6.23v.54H98.1a4.68,4.68,0,0,0-.45-2.4A1.67,1.67,0,0,0,96,29.4c-1.34,0-2.14.79-2.14,2.46,0,4.76,9.82,2.36,9.82,10.41,0,5.18-2.87,7.26-7.8,7.26-3.9,0-7.5-1.18-7.51-5.94V42.12Z"/><path id="Path_46610" data-name="Path 46610" class="cls-3" d="M110.17,42.11v.8c0,1.73.48,3,2.34,3s2.43-1.4,2.42-2.71c0-4.93-9.81-2.17-9.81-10.71,0-3.64,1.94-6.71,7.47-6.71,5.37,0,7.29,2.71,7.29,6.23v.54h-5.17a4.88,4.88,0,0,0-.45-2.39,1.71,1.71,0,0,0-1.63-.8c-1.35,0-2.15.8-2.14,2.46,0,4.77,9.81,2.36,9.81,10.42,0,5.17-2.87,7.25-7.79,7.25-3.9,0-7.51-1.18-7.51-5.94V42.12Z"/><path id="Path_46611" data-name="Path 46611" class="cls-3" d="M136.56,41.52c0,4.48-1.27,8-7.5,8s-7.52-3.51-7.52-8l0-15.27h5.38V43.1c0,1.79.7,2.84,2.14,2.84s2.14-1,2.14-2.85V26.25h5.37Z"/><g id="ASSOCIATED_STUDENTS_INC._SACRAMENTO_STATE" data-name="ASSOCIATED STUDENTS INC. SACRAMENTO STATE" class="cls-4"><g class="cls-4"><path class="cls-1" d="M74.62,55.14H74.3l-.31-.7H72.55l-.32.7h-.31l1.21-2.67h.28Zm-1.35-2.32-.61,1.35h1.21Z"/><path class="cls-1" d="M76.08,53.67c.59.13.87.34.87.75s-.38.76-.91.76A1.55,1.55,0,0,1,75,54.75l.18-.22a1.27,1.27,0,0,0,.91.38c.36,0,.59-.19.59-.46s-.13-.39-.69-.51-.89-.33-.89-.76a.78.78,0,0,1,.87-.73,1.43,1.43,0,0,1,.94.32l-.18.24a1.1,1.1,0,0,0-.76-.29c-.35,0-.57.19-.57.43S75.5,53.54,76.08,53.67Z"/><path class="cls-1" d="M78.51,53.67c.59.13.86.34.86.75a.8.8,0,0,1-.9.76,1.58,1.58,0,0,1-1.09-.43l.19-.22a1.25,1.25,0,0,0,.91.38c.35,0,.59-.19.59-.46s-.13-.39-.69-.51-.89-.33-.89-.76a.78.78,0,0,1,.87-.73,1.4,1.4,0,0,1,.93.32l-.17.24a1.14,1.14,0,0,0-.77-.29c-.34,0-.56.19-.56.43S77.92,53.54,78.51,53.67Z"/><path class="cls-1" d="M81.25,55.18a1.33,1.33,0,0,1-1.35-1.36,1.35,1.35,0,0,1,1.36-1.38,1.33,1.33,0,0,1,1.35,1.37A1.34,1.34,0,0,1,81.25,55.18Zm0-2.46a1,1,0,0,0-1,1.09,1.06,1.06,0,0,0,1.05,1.1,1,1,0,0,0,1-1.09A1.06,1.06,0,0,0,81.25,52.72Z"/><path class="cls-1" d="M84.49,55.18a1.32,1.32,0,0,1-1.33-1.36,1.34,1.34,0,0,1,1.34-1.38,1.4,1.4,0,0,1,1,.42l-.21.22a1.14,1.14,0,0,0-.83-.36,1.1,1.1,0,0,0,0,2.19,1.16,1.16,0,0,0,.86-.39l.19.2A1.37,1.37,0,0,1,84.49,55.18Z"/><path class="cls-1" d="M86.44,52.49v2.65h-.3V52.49Z"/><path class="cls-1" d="M89.72,55.14H89.4l-.31-.7H87.65l-.32.7H87l1.21-2.67h.28Zm-1.35-2.32-.61,1.35H89Z"/><path class="cls-1" d="M91,55.14h-.31V52.76h-.89v-.27h2.09v.27H91Z"/><path class="cls-1" d="M94.35,52.76H92.74v.9h1.44v.28H92.74v.93h1.63v.27H92.44V52.49h1.91Z"/><path class="cls-1" d="M95.93,55.14H95V52.49h.92a1.33,1.33,0,1,1,0,2.65Zm0-2.38h-.62v2.1h.62a1,1,0,0,0,1.1-1A1,1,0,0,0,95.93,52.76Z"/><path class="cls-1" d="M100.14,53.67c.59.13.86.34.86.75a.79.79,0,0,1-.9.76A1.6,1.6,0,0,1,99,54.75l.19-.22a1.27,1.27,0,0,0,.91.38c.36,0,.59-.19.59-.46s-.13-.39-.69-.51-.89-.33-.89-.76a.78.78,0,0,1,.87-.73,1.43,1.43,0,0,1,.94.32l-.18.24a1.12,1.12,0,0,0-.76-.29c-.35,0-.57.19-.57.43S99.56,53.54,100.14,53.67Z"/><path class="cls-1" d="M102.6,55.14h-.3V52.76h-.9v-.27h2.09v.27h-.89Z"/><path class="cls-1" d="M106.26,54a1,1,0,0,1-1.11,1.17,1,1,0,0,1-1.1-1.15V52.49h.3V54c0,.57.3.89.81.89A.76.76,0,0,0,106,54V52.49h.3Z"/><path class="cls-1" d="M107.92,55.14H107V52.49h.92a1.33,1.33,0,1,1,0,2.65Zm0-2.38h-.62v2.1h.62a1,1,0,0,0,1.1-1A1,1,0,0,0,107.92,52.76Z"/><path class="cls-1" d="M111.92,52.76H110.3v.9h1.45v.28H110.3v.93h1.64v.27H110V52.49h1.92Z"/><path class="cls-1" d="M114.53,52.49h.29v2.65h-.23L112.87,53v2.18h-.29V52.49h.28l1.67,2.12Z"/><path class="cls-1" d="M116.62,55.14h-.31V52.76h-.89v-.27h2.09v.27h-.89Z"/><path class="cls-1" d="M119,53.67c.59.13.86.34.86.75a.79.79,0,0,1-.9.76,1.6,1.6,0,0,1-1.09-.43l.19-.22a1.27,1.27,0,0,0,.91.38c.36,0,.59-.19.59-.46s-.13-.39-.69-.51-.89-.33-.89-.76a.78.78,0,0,1,.87-.73,1.43,1.43,0,0,1,.94.32l-.18.24a1.13,1.13,0,0,0-.77-.29c-.34,0-.56.19-.56.43S118.42,53.54,119,53.67Z"/><path class="cls-1" d="M120.56,55.14h-.13v-.4h.35v.34a.47.47,0,0,1-.43.52l0-.13C120.5,55.4,120.58,55.3,120.56,55.14Z"/><path class="cls-1" d="M123,52.49v2.65h-.3V52.49Z"/><path class="cls-1" d="M125.75,52.49H126v2.65h-.24L124.09,53v2.18h-.3V52.49h.28l1.68,2.12Z"/><path class="cls-1" d="M128,55.18a1.32,1.32,0,0,1-1.33-1.36,1.34,1.34,0,0,1,1.34-1.38,1.36,1.36,0,0,1,1,.42l-.2.22a1.15,1.15,0,0,0-.84-.36,1.1,1.1,0,0,0,0,2.19,1.12,1.12,0,0,0,.86-.39l.2.2A1.38,1.38,0,0,1,128,55.18Z"/><path class="cls-1" d="M129.58,55.14v-.4h.34v.4Z"/></g><g class="cls-4"><path class="cls-1" d="M73.1,57.93c.6.12.87.34.87.75s-.38.75-.91.75A1.56,1.56,0,0,1,72,59l.18-.22a1.28,1.28,0,0,0,.91.37c.36,0,.6-.18.6-.45s-.14-.39-.7-.51-.89-.33-.89-.77a.78.78,0,0,1,.88-.72,1.42,1.42,0,0,1,.93.32l-.18.23A1.14,1.14,0,0,0,73,57c-.35,0-.57.18-.57.43S72.52,57.8,73.1,57.93Z"/><path class="cls-1" d="M77,59.4h-.32l-.31-.7H74.91l-.31.7h-.31l1.21-2.68h.28Zm-1.35-2.33L75,58.43h1.21Z"/><path class="cls-1" d="M78.57,59.44a1.37,1.37,0,0,1,0-2.74,1.4,1.4,0,0,1,1,.42l-.21.22a1.14,1.14,0,0,0-.83-.36,1,1,0,0,0-1,1.09,1,1,0,0,0,1,1.09,1.18,1.18,0,0,0,.86-.38l.19.19A1.34,1.34,0,0,1,78.57,59.44Z"/><path class="cls-1" d="M82,59.4l-.77-1h-.76v1h-.3V56.74H81.3c.58,0,1,.32,1,.8a.77.77,0,0,1-.72.77l.81,1.09ZM81.27,57h-.82V58.1h.82c.4,0,.68-.21.68-.55S81.7,57,81.27,57Z"/><path class="cls-1" d="M85.37,59.4h-.32l-.32-.7H83.29l-.32.7h-.3l1.21-2.68h.28ZM84,57.07l-.6,1.36h1.21Z"/><path class="cls-1" d="M87.16,58.67h0l-1-1.42V59.4h-.29V56.74h.3l1,1.45,1-1.45h.3V59.4h-.3V57.25Z"/><path class="cls-1" d="M91.1,57H89.48v.9h1.44v.27H89.48v.93h1.63v.28H89.18V56.74H91.1Z"/><path class="cls-1" d="M93.67,56.74H94V59.4h-.24L92,57.22V59.4h-.29V56.74H92l1.67,2.13Z"/><path class="cls-1" d="M95.72,59.4h-.31V57h-.89v-.28h2.09V57h-.89Z"/><path class="cls-1" d="M98.22,59.44a1.37,1.37,0,1,1,1.35-1.37A1.33,1.33,0,0,1,98.22,59.44Zm0-2.46a1,1,0,0,0-1,1.09,1.05,1.05,0,0,0,1,1.09,1,1,0,0,0,1-1.09A1.05,1.05,0,0,0,98.22,57Z"/><path class="cls-1" d="M102.29,57.93c.59.12.87.34.87.75s-.38.75-.91.75a1.56,1.56,0,0,1-1.08-.42l.18-.22a1.26,1.26,0,0,0,.91.37c.36,0,.59-.18.59-.45s-.13-.39-.69-.51-.89-.33-.89-.77a.78.78,0,0,1,.87-.72,1.43,1.43,0,0,1,.94.32l-.18.23a1.14,1.14,0,0,0-.76-.28c-.35,0-.57.18-.57.43S101.71,57.8,102.29,57.93Z"/><path class="cls-1" d="M104.71,59.4h-.3V57h-.89v-.28h2.09V57h-.9Z"/><path class="cls-1" d="M108.3,59.4H108l-.31-.7h-1.44l-.32.7h-.3l1.21-2.68h.28Zm-1.36-2.33-.6,1.36h1.21Z"/><path class="cls-1" d="M109.48,59.4h-.3V57h-.89v-.28h2.08V57h-.89Z"/><path class="cls-1" d="M112.85,57h-1.62v.9h1.45v.27h-1.45v.93h1.64v.28h-1.94V56.74h1.92Z"/></g></g></g></g></svg>